<?xml version="1.0" standalone="no"?>
<!DOCTYPE svg PUBLIC "-//W3C//DTD SVG 20010904//EN"
 "http://www.w3.org/TR/2001/REC-SVG-20010904/DTD/svg10.dtd">
<svg version="1.0" xmlns="http://www.w3.org/2000/svg"
 width="768.000000pt" height="768.000000pt" viewBox="0 0 768.000000 768.000000"
 preserveAspectRatio="xMidYMid meet">

<g transform="translate(0.000000,768.000000) scale(0.100000,-0.100000)"
fill="#000000" stroke="none">
<path d="M3377 6773 l6 -36 -76 6 -77 5 16 -30 c8 -16 13 -32 10 -35 -3 -3
-27 -7 -53 -8 -112 -7 -207 -22 -211 -33 -2 -7 -12 -12 -22 -12 -10 0 -20 -7
-24 -15 -3 -8 -17 -20 -31 -27 -33 -15 -32 -21 8 -39 17 -8 31 -18 30 -24 -1
-5 -25 -17 -53 -25 -28 -8 -62 -25 -74 -37 -13 -13 -54 -32 -90 -43 -68 -22
-75 -27 -53 -49 17 -18 -20 -46 -89 -66 -94 -27 -110 -35 -94 -45 8 -5 12 -11
10 -13 -12 -10 -202 -101 -267 -129 -66 -27 -88 -48 -65 -62 5 -3 25 -45 44
-93 36 -88 54 -179 40 -198 -4 -6 -45 -35 -92 -65 -47 -30 -114 -82 -150 -115
-36 -33 -88 -80 -115 -105 -100 -90 -361 -421 -460 -580 -49 -79 -212 -402
-246 -488 -16 -41 -41 -117 -55 -170 -13 -54 -38 -139 -54 -190 -17 -51 -35
-125 -41 -165 -13 -84 -20 -117 -49 -212 -13 -43 -25 -123 -31 -205 -8 -118
-7 -140 7 -172 16 -35 16 -43 -1 -119 -18 -85 -15 -140 9 -188 8 -15 17 -79
21 -156 4 -71 13 -155 20 -185 7 -30 18 -86 25 -125 11 -71 88 -246 136 -310
12 -16 33 -52 47 -80 25 -49 110 -125 140 -125 8 0 30 17 49 37 20 21 44 45
55 53 57 45 145 120 193 164 30 28 12 6 -40 -48 -109 -113 -163 -165 -205
-199 l-29 -24 31 -29 c17 -16 38 -42 48 -57 10 -16 30 -31 46 -34 34 -6 70
-39 63 -56 -2 -7 11 -28 31 -47 19 -19 35 -39 35 -44 0 -6 34 -47 75 -90 41
-44 77 -88 81 -98 6 -20 -63 -112 -141 -188 -68 -65 -72 -76 -35 -95 39 -20
39 -51 1 -98 -29 -37 -32 -76 -7 -95 6 -5 47 -14 91 -21 78 -11 177 -49 233
-90 27 -19 61 -38 187 -105 114 -61 328 -136 388 -136 12 0 29 23 50 68 26 54
37 68 58 70 19 2 28 -3 37 -22 9 -21 7 -28 -15 -50 -14 -14 -29 -26 -34 -26
-11 0 -59 -71 -59 -87 0 -8 14 -13 38 -13 21 0 62 -6 92 -14 61 -16 70 -11 70
37 0 47 29 97 55 97 37 0 39 -29 6 -64 -28 -29 -59 -92 -49 -101 2 -3 44 0 92
5 99 12 214 13 951 12 286 0 552 1 590 3 39 2 171 6 295 10 191 6 272 13 425
40 11 2 67 9 125 15 58 6 141 15 186 20 115 14 151 13 158 -6 5 -12 11 -9 33
17 45 53 73 59 264 59 95 0 169 3 165 8 -8 8 -12 8 -53 12 -21 1 -15 5 27 16
105 28 160 47 160 55 0 5 9 9 19 9 13 0 18 6 16 18 -2 9 -4 20 -4 24 -3 22
-178 112 -291 148 -124 40 -296 90 -344 100 -163 34 -190 87 -71 140 37 17 71
40 84 58 12 17 31 34 43 38 11 3 43 19 69 35 26 15 64 31 83 34 23 5 44 19 66
46 17 22 46 45 65 53 22 9 43 31 61 63 15 26 37 58 48 69 12 12 34 36 50 53
16 17 33 31 38 31 4 0 20 10 34 23 71 60 99 91 116 130 10 23 28 49 39 58 20
15 79 140 79 167 0 19 28 75 48 98 34 38 55 116 59 216 3 74 7 96 17 92 22 -9
40 82 40 206 1 69 6 131 15 156 13 41 13 43 -19 89 -138 201 -511 560 -815
785 -167 124 -349 216 -367 185 -5 -9 -20 -10 -48 -5 -33 6 -38 5 -29 -6 8
-10 8 -14 1 -14 -6 0 -14 5 -17 10 -3 6 -11 10 -17 10 -6 0 -5 -6 3 -16 25
-30 -17 -38 -75 -15 -44 18 -41 7 11 -34 79 -63 78 -63 69 -40 -7 19 -6 18 16
-2 13 -11 84 -60 158 -109 236 -153 486 -369 664 -573 97 -111 211 -261 245
-323 33 -60 13 -36 -41 47 -60 94 -161 219 -283 350 -113 122 -378 349 -505
433 -47 30 -118 77 -158 104 -70 46 -100 59 -88 39 4 -5 1 -11 -5 -13 -7 -2
-7 -12 0 -31 7 -18 7 -27 0 -27 -6 0 -8 -4 -5 -9 9 -14 -52 -5 -79 13 -13 9
-27 16 -30 16 -9 0 48 -72 115 -145 98 -106 88 -103 -20 8 -58 59 -112 107
-120 107 -8 0 -1 -14 19 -34 23 -23 29 -36 21 -41 -7 -5 -10 -19 -6 -37 7 -38
-10 -74 -28 -59 -14 12 -27 1 -39 -32 -4 -9 -12 -16 -18 -15 -7 2 -16 -8 -20
-22 -4 -14 -7 -19 -8 -12 -1 7 -5 11 -10 7 -5 -3 -20 13 -32 34 -13 24 -34 45
-53 52 -60 24 -143 80 -155 105 -11 24 -10 24 14 8 24 -16 25 -15 27 7 2 36 3
43 9 54 6 12 4 32 -9 98 -8 38 -7 47 5 47 9 0 11 5 7 12 -4 7 -8 34 -9 61 -1
38 3 50 17 58 18 10 18 11 -1 35 -11 14 -17 32 -14 40 3 9 -6 19 -28 28 -19 7
-43 17 -54 21 -11 5 -23 8 -27 7 -4 -1 -5 5 -2 13 3 8 22 17 42 20 77 13 87
16 72 25 -10 6 -4 12 22 23 34 14 92 77 118 127 7 13 15 44 17 67 l3 43 -47 0
c-152 -1 -235 -36 -273 -116 -18 -39 -24 -45 -31 -31 -12 20 -2 62 17 78 8 6
14 17 14 25 0 17 -60 1 -76 -21 -15 -20 -24 -19 -24 4 0 23 -16 36 -25 20 -4
-5 -13 -8 -20 -5 -7 2 -16 2 -20 -2 -12 -12 -30 -8 -44 11 -7 10 -19 16 -27
13 -7 -3 -16 -1 -20 5 -4 6 -10 6 -19 -1 -10 -8 -24 -9 -47 -2 -41 13 -125 32
-138 32 -6 0 -10 -7 -10 -15 0 -8 -9 -14 -22 -13 -40 2 -46 -2 -41 -21 3 -10
0 -22 -6 -25 -7 -5 -4 -21 9 -49 10 -23 21 -50 24 -60 4 -11 15 -21 26 -24 11
-3 20 -11 20 -18 0 -13 41 -35 65 -35 8 0 15 -7 15 -16 0 -11 6 -14 20 -9 23
7 130 -23 130 -36 0 -5 -10 -13 -22 -20 -13 -6 -31 -21 -41 -33 l-18 -21 6 24
c9 31 -13 46 -37 24 -10 -9 -18 -22 -18 -30 0 -7 -9 -22 -20 -33 -23 -23 -19
-42 8 -34 13 4 13 2 -2 -8 -32 -21 -66 -56 -66 -68 0 -10 50 -8 83 5 25 10 21
1 -17 -40 -42 -44 -52 -75 -25 -75 26 0 24 -7 -11 -37 -40 -34 -40 -57 1 -51
28 4 30 3 26 -19 -2 -12 0 -23 5 -23 5 0 6 -6 3 -12 -4 -7 5 0 19 17 28 33 30
32 40 -10 4 -17 3 -25 -2 -17 -6 9 -14 6 -32 -13 -13 -14 -27 -25 -32 -25 -5
0 -39 -14 -76 -32 -37 -17 -90 -41 -118 -52 -37 -15 -62 -35 -90 -71 -43 -57
-66 -81 -71 -77 -3 2 -30 -28 -49 -56 -1 -2 -16 -6 -33 -8 -30 -5 -31 -4 -21
20 13 35 -5 84 -33 88 -17 2 -21 9 -20 28 3 31 11 78 17 107 3 13 0 25 -5 29
-6 4 -6 11 2 20 7 8 7 14 1 14 -5 0 -13 16 -16 35 -8 39 -12 41 -40 20 -11 -8
-27 -15 -37 -15 -20 0 -32 37 -19 61 6 10 8 24 5 31 -7 17 44 84 85 113 31 21
38 35 19 35 -8 0 -7 6 2 16 13 15 11 16 -21 10 -61 -13 -95 -12 -92 2 1 6 -3
12 -9 12 -7 0 -5 10 5 25 21 31 10 32 -65 6 -169 -58 -509 -273 -684 -432 -47
-43 -64 -55 -40 -29 22 25 44 48 50 52 5 4 7 9 4 12 -6 6 -143 -85 -226 -149
l-48 -37 39 36 c21 19 83 66 138 103 55 37 144 100 199 138 167 118 358 237
480 297 64 32 123 66 132 76 16 18 15 18 -13 14 -39 -6 -38 2 5 28 19 12 35
26 35 31 0 5 -21 9 -47 10 -27 0 -63 6 -82 13 l-34 12 49 42 c62 53 48 54
-106 8 -230 -68 -483 -156 -695 -243 -246 -101 -607 -330 -885 -562 -183 -154
-411 -397 -444 -474 -7 -18 -39 -65 -70 -106 -31 -41 -56 -77 -57 -80 0 -3 -1
-37 -2 -76 -2 -83 -36 -165 -68 -165 -31 0 -34 28 -9 79 25 50 43 114 30 106
-17 -11 -32 25 -25 62 5 28 23 54 73 103 37 36 127 132 201 214 231 255 565
531 861 712 119 72 282 158 357 188 32 13 99 40 148 61 187 77 472 175 629
216 78 21 216 84 216 99 0 4 -11 11 -25 14 -32 8 -32 22 0 30 31 8 25 21 -11
30 -15 4 -33 14 -41 21 -8 8 -26 15 -39 15 -14 0 -23 4 -19 9 3 6 -16 13 -42
16 -59 8 -75 13 -45 14 13 1 21 5 17 10 -3 5 3 12 12 14 10 3 -10 5 -44 4 -34
-1 -65 1 -68 5 -15 14 43 31 110 31 56 0 65 2 43 9 -16 5 -28 14 -28 20 0 11
-104 6 -160 -7 -14 -3 -34 -8 -45 -9 -11 -2 -29 -7 -39 -12 -15 -6 -17 -4 -11
7 7 11 6 11 -9 -1 -20 -16 -88 -42 -81 -30 2 4 -7 5 -20 2 -14 -2 -22 -9 -18
-15 3 -6 1 -7 -5 -3 -11 6 -40 -5 -92 -36 -8 -4 -27 -14 -43 -21 -15 -7 -24
-17 -20 -21 5 -4 1 -7 -7 -5 -20 4 -70 -23 -100 -56 -14 -15 -34 -32 -45 -37
-13 -7 -11 -2 8 15 15 14 27 29 27 32 0 10 -57 -33 -77 -58 -27 -32 -68 -65
-59 -47 4 8 -11 -5 -35 -30 -30 -33 -40 -39 -35 -22 5 13 3 22 -4 22 -6 0 -5
11 5 30 9 17 13 30 9 30 -3 0 9 21 28 48 44 61 56 82 37 65 -29 -28 -34 -8 -9
37 25 45 21 50 -27 29 -25 -11 -48 -17 -51 -14 -3 2 8 10 24 17 36 16 94 59
94 70 0 5 -10 3 -22 -3 l-23 -12 20 24 c11 13 40 43 65 67 38 37 41 43 21 38
-21 -4 -20 -1 12 25 20 17 36 35 34 41 -3 17 179 142 270 185 32 15 60 31 63
35 9 12 74 23 67 11 -8 -13 93 -53 136 -54 27 0 29 -2 12 -9 -18 -8 -17 -9 7
-9 20 -1 26 3 22 13 -4 11 4 16 28 18 21 2 32 8 30 16 -1 8 2 11 8 7 5 -3 10
2 10 12 1 41 80 92 94 60 3 -6 3 -2 1 9 -7 29 41 53 57 29 5 -6 8 -5 8 4 0 11
3 11 15 1 8 -7 13 -16 10 -20 -3 -5 -1 -11 4 -14 11 -7 9 13 -3 32 -4 7 -12
26 -16 43 -8 26 -7 29 5 19 10 -8 8 3 -6 39 -10 28 -19 60 -19 71 0 11 -6 20
-14 20 -12 0 -13 11 -9 57 5 41 3 54 -6 49 -6 -4 -8 -13 -5 -19 5 -9 4 -9 -5
-1 -10 9 -9 23 3 65 19 63 20 101 4 117 -7 7 -8 12 -2 12 6 0 15 -5 22 -12 9
-9 12 -8 14 7 0 11 0 27 0 35 -10 91 -10 119 1 117 7 -1 11 4 9 11 -1 7 -3 20
-5 30 -4 27 -37 74 -81 115 l-41 39 35 -19 c36 -19 100 -105 100 -133 0 -9 6
-24 13 -34 12 -16 13 -16 12 7 0 14 -3 28 -7 32 -4 4 -4 13 -2 20 3 7 1 16 -5
20 -6 3 -11 11 -11 16 0 6 5 7 12 3 7 -4 8 -3 4 5 -4 6 -12 9 -17 6 -9 -6 -17
8 -23 37 -6 30 -19 47 -30 41 -6 -3 -8 -2 -3 2 4 5 0 17 -10 27 -25 28 -6 34
24 7 l27 -24 -22 29 c-26 34 -29 55 -4 34 9 -9 27 -19 40 -23 12 -3 29 -16 36
-28 36 -59 80 -127 81 -127 4 0 -4 63 -11 90 -3 14 -13 34 -22 45 -16 19 -16
19 1 6 16 -13 16 -11 2 22 -21 50 -20 91 1 83 9 -3 18 -6 20 -6 2 0 4 -8 4
-17 0 -15 -2 -16 -10 -3 -5 8 -10 11 -10 7 0 -4 12 -23 27 -42 27 -34 43 -32
43 5 0 13 -1 13 -10 0 -7 -11 -10 -11 -10 -2 0 7 -5 10 -12 6 -7 -5 -8 -3 -3
6 5 9 4 11 -3 6 -8 -5 -10 -2 -6 9 6 14 8 14 20 -2 13 -17 13 -17 14 0 0 16 2
17 15 3 8 -8 15 -24 15 -36 0 -12 4 -19 9 -15 5 3 15 -11 21 -30 6 -19 16 -37
21 -40 5 -4 6 2 2 12 -3 11 -2 15 3 10 5 -5 14 -23 21 -40 11 -30 12 -28 12
34 1 36 -2 69 -6 75 -5 5 1 0 11 -11 l19 -20 -6 23 c-8 33 7 18 28 -27 10 -22
20 -40 24 -39 18 2 24 -3 12 -11 -10 -7 -11 -16 -4 -37 l10 -29 7 40 c4 24 2
53 -4 69 -6 16 -8 31 -5 34 3 3 5 1 5 -4 0 -5 9 -20 19 -33 l18 -24 -2 41 c-3
49 -27 89 -60 102 -28 11 -106 89 -122 123 -10 19 -23 53 -28 67 -1 3 -9 30
-18 60 -15 48 -15 55 -2 63 8 4 18 26 21 48 4 24 14 43 23 47 25 9 31 23 31
80 0 67 16 68 66 2 21 -27 39 -50 41 -50 10 0 50 28 61 43 16 21 45 22 62 2
11 -14 15 -13 28 6 15 21 16 21 29 4 17 -24 17 -51 -3 -108 -25 -73 -13 -91
22 -34 28 46 44 59 44 35 -1 -7 -7 -24 -15 -38 -8 -14 -14 -34 -15 -44 0 -18
2 -18 25 4 22 21 25 22 25 5 0 -17 1 -17 18 -2 10 10 22 17 25 17 11 0 8 -39
-4 -62 -15 -28 -5 -33 25 -13 14 10 26 14 26 11 0 -4 9 -2 20 4 25 13 25 13 0
-43 -18 -41 -19 -77 -1 -77 11 0 47 41 64 75 18 33 22 21 7 -19 -13 -35 9 -35
47 0 15 14 29 21 31 15 6 -18 20 -13 27 10 5 16 10 18 20 9 8 -7 19 -9 26 -5
6 4 15 1 20 -6 8 -12 10 -12 18 -1 13 22 24 -34 10 -59 -24 -46 23 -35 49 11
22 40 32 38 32 -6 0 -45 17 -41 48 12 l23 39 -3 -37 c-4 -34 -2 -36 12 -23 9
8 20 15 23 15 10 0 -23 -80 -46 -113 -25 -37 -16 -44 25 -19 18 12 47 29 63
38 l30 16 -30 -31 c-16 -18 -72 -52 -122 -76 -51 -25 -93 -49 -93 -55 0 -5 -4
-9 -9 -7 -4 1 -27 -13 -50 -31 -30 -24 -41 -40 -41 -60 l1 -27 30 35 30 35
-36 -80 c-20 -44 -61 -127 -91 -185 -30 -58 -48 -96 -39 -86 8 11 15 24 15 29
0 4 4 5 10 2 6 -3 7 1 4 10 -4 10 -2 15 6 13 7 -2 17 8 21 22 4 14 8 18 8 10
1 -8 15 10 32 40 16 30 27 44 24 30 -4 -14 -9 -38 -11 -55 -5 -27 -4 -28 7
-10 7 11 14 34 15 50 2 17 8 60 15 97 9 51 16 66 28 65 13 -1 15 -9 12 -39 -2
-29 0 -38 10 -36 8 2 17 10 21 18 4 9 7 2 7 -18 1 -18 -3 -31 -8 -28 -4 3 -4
-14 2 -37 17 -73 16 -71 32 -57 11 9 15 9 15 1 0 -7 5 -9 12 -5 7 4 8 3 4 -5
-9 -14 2 -67 11 -58 3 4 14 -5 25 -18 11 -14 23 -23 27 -21 4 3 8 0 8 -7 0
-18 64 -127 74 -127 5 0 8 -3 7 -7 -3 -12 59 -105 64 -96 3 4 3 2 1 -5 -1 -7
4 -29 12 -48 8 -19 15 -38 15 -42 4 -18 10 -13 10 9 0 23 0 23 14 3 8 -11 18
-38 21 -60 4 -21 14 -47 22 -56 8 -9 12 -22 8 -27 -3 -6 1 -11 9 -11 9 0 17
-8 18 -17 1 -10 2 -25 3 -33 4 -38 16 -59 32 -53 12 5 14 3 8 -7 -6 -10 1 -12
36 -7 l44 6 -24 -19 c-28 -20 -35 -56 -13 -65 8 -3 21 0 28 6 11 9 14 6 14
-15 0 -19 5 -26 18 -26 10 0 22 3 26 8 4 4 12 8 17 8 5 1 12 2 15 3 4 0 1 8
-6 16 -11 14 -8 15 24 11 20 -2 34 -1 31 4 -7 11 49 20 88 14 24 -4 28 -3 17
5 -8 6 -23 11 -32 11 -9 0 -19 4 -22 8 -5 9 76 -1 116 -14 44 -14 171 -111
163 -125 -3 -4 25 -39 62 -79 37 -39 68 -76 68 -83 1 -19 46 -107 55 -107 5 0
12 -10 15 -21 4 -12 23 -42 42 -67 19 -25 30 -48 26 -51 -11 -8 -10 -15 10
-79 15 -50 15 -55 0 -70 -14 -15 -15 -14 -9 5 4 12 2 24 -4 28 -5 3 -10 19
-10 36 0 16 -4 29 -10 29 -5 0 -10 7 -10 15 0 8 -4 15 -10 15 -5 0 -10 13 -10
29 0 15 -10 43 -23 62 -23 35 -50 91 -47 97 1 2 -10 17 -25 32 -15 15 -25 30
-23 32 12 14 -125 134 -141 123 -6 -3 -15 4 -21 15 -6 11 -15 20 -21 20 -6 0
-7 -5 -3 -12 4 -7 3 -8 -5 -4 -17 11 -81 15 -81 5 0 -4 6 -9 13 -12 6 -3 -8
-3 -33 -1 l-45 4 50 -16 c28 -9 59 -23 70 -31 19 -14 19 -15 -10 -10 -27 5
-28 4 -10 -9 10 -8 23 -14 29 -14 5 0 7 -2 4 -5 -3 -3 -19 1 -37 8 -17 7 -29
16 -26 19 3 3 -2 11 -10 18 -13 11 -16 11 -13 -1 2 -9 -5 -14 -19 -13 -12 0
-20 -3 -17 -8 7 -10 6 -10 -40 6 -48 16 -32 30 27 22 l42 -5 -37 10 c-29 8
-45 8 -68 -3 -33 -14 -39 -27 -12 -26 26 0 63 -10 76 -21 9 -7 19 -6 33 4 19
13 21 13 19 -3 -2 -10 -12 -18 -27 -19 -37 -2 -69 -14 -63 -24 3 -5 -9 -9 -25
-9 -17 0 -31 -4 -31 -10 0 -5 9 -10 19 -10 11 0 26 -7 35 -15 18 -18 30 -20
20 -2 -5 8 -2 8 9 -2 18 -14 22 -22 10 -20 -5 1 -19 -2 -33 -7 l-25 -8 25 -7
25 -7 -24 -1 c-19 -1 -21 -4 -11 -16 10 -12 7 -15 -15 -21 -17 -4 -23 -9 -15
-14 8 -5 7 -9 -4 -13 -10 -4 -13 -12 -9 -23 5 -13 2 -16 -9 -12 -8 4 -15 1
-15 -7 0 -8 21 -21 46 -31 57 -21 70 -31 48 -40 -9 -3 -14 -11 -11 -16 5 -7
-4 -9 -24 -6 -17 2 -29 1 -26 -3 2 -4 -6 -9 -18 -11 -15 -2 -23 -10 -23 -23 0
-16 7 -20 29 -18 23 2 26 0 16 -12 -10 -12 -8 -17 11 -24 13 -5 17 -10 9 -11
-13 0 -13 -2 -1 -9 12 -8 12 -12 2 -24 -6 -9 -8 -17 -4 -20 5 -3 69 -24 143
-46 74 -23 173 -55 220 -72 86 -31 482 -210 477 -216 -2 -1 -55 20 -118 48
-338 152 -538 224 -675 245 -41 6 -46 5 -41 -10 4 -11 1 -16 -11 -16 -12 -1
-9 -5 9 -15 27 -14 43 -40 34 -54 -2 -4 -31 -6 -65 -5 -33 2 -60 0 -60 -4 0
-5 -15 -7 -32 -4 -33 4 -32 3 12 -23 25 -14 104 -55 175 -91 135 -67 142 -73
40 -31 -33 13 -73 27 -89 31 l-29 7 29 -24 c16 -14 68 -47 115 -75 253 -150
691 -536 913 -804 53 -65 101 -118 106 -118 13 0 12 8 -1 106 -10 70 -9 85 3
103 17 24 10 79 -13 107 -25 30 -425 329 -541 403 -64 42 -180 109 -258 150
-77 40 -139 75 -137 78 7 6 326 -169 422 -231 50 -32 186 -130 303 -219 116
-88 215 -158 218 -155 10 10 -18 262 -32 297 -8 18 -17 54 -21 80 -8 63 -22
83 -93 127 -33 20 -60 39 -60 41 0 2 30 -13 66 -33 66 -37 67 -37 61 -13 -22
96 -63 236 -107 364 -28 83 -58 170 -66 195 -8 25 -25 68 -39 95 -13 28 -27
67 -30 87 -4 27 -16 45 -45 68 -36 29 -40 36 -40 77 0 41 -5 52 -45 94 -25 26
-53 65 -62 86 -10 21 -30 53 -46 71 -21 26 -27 42 -25 72 1 21 -4 45 -11 54
-11 13 -11 22 -1 46 16 39 3 55 -81 99 -32 18 -59 36 -59 42 0 5 23 9 51 9 44
0 54 4 80 32 16 18 28 37 26 42 -2 5 -45 26 -97 47 -93 37 -175 86 -175 104 0
6 22 13 49 16 30 3 52 11 58 22 7 13 23 17 62 17 29 0 76 7 105 16 29 8 59 13
66 10 7 -2 23 -33 34 -69 23 -68 65 -140 98 -170 20 -18 22 -18 42 4 28 30 60
135 106 344 20 94 46 196 56 228 23 68 18 79 -39 98 -111 36 -192 99 -128 99
30 0 41 14 23 28 -7 6 -38 20 -69 32 -31 11 -61 27 -68 35 -6 8 -42 24 -78 36
-106 34 -202 89 -264 150 -50 49 -65 58 -117 68 -32 6 -75 22 -94 35 -19 13
-46 27 -58 31 -13 4 -28 11 -34 15 -5 4 -26 11 -45 15 -59 11 -70 16 -70 29 0
17 -85 27 -117 15 -29 -11 -53 -2 -53 20 0 22 -63 44 -120 42 -35 -1 -48 3
-61 20 -12 16 -26 22 -50 21 -66 -3 -134 -11 -161 -17 -23 -6 -29 -3 -39 19
-7 14 -15 26 -19 26 -3 0 -21 -16 -40 -35 -33 -34 -38 -36 -100 -35 -36 0
-100 -2 -143 -6 -63 -5 -89 -2 -144 16 -37 12 -78 21 -92 20 -41 -3 -228 0
-311 5 -41 3 -91 5 -110 6 -53 2 -179 29 -185 40 -9 14 -36 11 -56 -7 -14 -12
-22 -13 -39 -4 -12 6 -33 9 -48 5 -17 -3 -40 2 -64 15 -21 11 -40 20 -42 20
-3 0 -2 -16 1 -37z m-172 -243 c4 -6 -6 -10 -24 -10 -16 0 -33 5 -36 10 -4 6
6 10 24 10 16 0 33 -4 36 -10z m-25 -50 c12 -8 12 -10 1 -10 -11 0 -11 -3 -1
-15 11 -13 8 -15 -13 -15 -14 0 -32 -7 -41 -15 -8 -8 -20 -15 -26 -15 -7 0
-24 -8 -38 -19 -15 -10 -45 -24 -67 -31 -67 -21 -97 -40 -164 -104 l-64 -61
38 60 c59 94 99 137 159 174 93 56 177 76 216 51z m2515 -55 c66 -32 125 -79
113 -90 -2 -3 -30 4 -60 14 -31 11 -90 25 -132 31 -42 7 -76 17 -76 21 0 5 6
9 13 10 22 1 -27 18 -55 18 -38 1 -35 18 5 30 49 15 115 4 192 -34z m-978 -47
c-3 -8 -6 -5 -6 6 -1 11 2 17 5 13 3 -3 4 -12 1 -19z m-822 -78 c10 -11 16
-20 13 -20 -3 0 -13 9 -23 20 -10 11 -16 20 -13 20 3 0 13 -9 23 -20z m1141
-216 c-7 -37 -35 -106 -36 -88 0 6 6 31 14 57 7 25 12 58 9 74 -4 24 -3 26 7
10 7 -11 9 -33 6 -53z m-40 -104 c1 -118 3 -132 28 -184 15 -31 32 -56 37 -56
5 0 9 -7 9 -15 0 -9 12 -27 27 -41 14 -13 23 -27 20 -31 -4 -3 -7 -1 -7 5 0 7
-4 12 -9 12 -13 0 0 -41 39 -122 17 -37 30 -73 28 -80 -5 -14 -49 58 -51 83
-1 10 -4 16 -8 13 -4 -2 -19 16 -33 41 -27 46 -46 63 -25 23 11 -22 11 -22
-15 2 -15 13 -24 30 -22 37 5 12 -10 28 -28 28 -13 0 -83 141 -92 183 -3 18
-10 35 -15 37 -7 5 15 -82 28 -110 2 -5 -3 -1 -11 10 -34 42 -46 127 -24 169
7 13 7 16 -2 11 -8 -5 -9 -2 -1 11 5 11 13 28 16 39 l7 20 8 -20 c9 -20 9 -20
9 0 1 11 8 31 17 44 16 22 17 23 27 5 6 -10 10 -39 9 -64 l-1 -45 9 35 c6 19
7 45 5 58 -6 25 3 48 14 37 3 -4 6 -64 7 -135z m102 29 c-3 -33 -4 -33 -8 8
-3 23 -2 39 3 34 5 -5 7 -24 5 -42z m-1300 16 c-3 -3 -9 2 -12 12 -6 14 -5 15
5 6 7 -7 10 -15 7 -18z m1046 -78 c3 -31 19 -89 37 -133 19 -44 33 -86 32 -94
-2 -11 -1 -11 3 -2 9 19 54 -25 47 -45 -3 -8 3 -24 13 -37 11 -12 2 -4 -20 18
-21 23 -54 65 -74 94 -22 33 -38 49 -42 42 -5 -8 -9 -7 -13 4 -4 9 -3 15 1 13
13 -4 14 8 3 43 l-11 35 3 -33 c5 -48 -10 -24 -17 28 -12 87 -14 133 -5 119 7
-11 10 -9 15 10 10 35 23 5 28 -62z m-47 -109 c2 -17 0 -19 -7 -8 -5 8 -6 18
-4 22 8 12 10 10 11 -14z m127 -64 c3 -8 2 -12 -4 -9 -6 3 -10 10 -10 16 0 14
7 11 14 -7z m-40 -83 c-6 -6 -24 19 -24 34 1 6 7 1 15 -9 8 -11 12 -22 9 -25z
m49 -44 c3 -8 0 -14 -7 -14 -7 0 -13 6 -13 14 0 7 4 13 8 13 4 0 9 -6 12 -13z
m87 -22 c13 -14 21 -25 18 -25 -2 0 -15 11 -28 25 -13 14 -21 25 -18 25 2 0
15 -11 28 -25z m-70 -11 c0 -8 -19 -13 -24 -6 -3 5 1 9 9 9 8 0 15 -2 15 -3z
m31 -41 c13 -16 12 -17 -3 -4 -10 7 -18 15 -18 17 0 8 8 3 21 -13z m88 -13
c11 -24 11 -24 -3 -6 -9 11 -16 24 -16 30 0 12 5 7 19 -24z m209 -90 c17 -27
10 -25 -19 6 -13 14 -17 23 -9 19 9 -3 21 -14 28 -25z m-48 5 c6 -8 10 -22 8
-32 -3 -14 -8 -12 -26 15 -18 24 -20 32 -9 32 8 0 20 -7 27 -15z m-2623 -16
c7 -6 13 -20 13 -30 0 -10 8 -22 17 -28 17 -9 16 -12 -7 -36 -13 -14 -46 -33
-72 -43 -53 -19 -58 -26 -27 -43 17 -9 20 -17 15 -43 -4 -23 -2 -37 8 -45 19
-16 11 -38 -32 -83 l-35 -37 27 -12 c36 -17 30 -38 -23 -69 -32 -18 -45 -32
-46 -50 -1 -13 -6 -25 -11 -27 -31 -10 -79 -41 -88 -55 -8 -13 -6 -22 8 -37
24 -26 12 -43 -56 -77 -26 -13 -48 -28 -48 -33 0 -12 26 -21 64 -21 30 0 56
-15 56 -31 0 -4 -22 -23 -49 -41 -27 -18 -72 -54 -101 -80 l-52 -48 58 0 59
-1 -35 -29 c-19 -17 -38 -30 -42 -30 -19 0 -181 -104 -213 -137 -32 -33 -46
-65 -27 -62 41 7 14 -30 -85 -113 -115 -96 -157 -128 -171 -128 -20 0 -14 15
33 81 50 70 102 173 112 220 5 25 2 29 -15 29 -11 0 -33 -5 -48 -10 -38 -15
-52 1 -33 37 8 15 57 72 110 128 108 114 123 136 115 171 -4 13 0 40 9 60 20
49 19 67 -6 90 -34 30 -7 88 83 176 42 42 56 81 38 102 -20 25 5 52 77 82 37
15 72 31 76 34 4 4 -22 22 -60 40 -62 31 -66 34 -47 47 10 7 41 29 68 49 48
35 113 64 145 64 26 0 61 -38 61 -65 0 -29 18 -33 27 -7 13 38 57 138 67 150
11 15 60 9 83 -9z m1003 5 c0 -22 -67 -84 -90 -84 -28 0 -50 11 -50 25 0 21
39 63 63 68 52 10 77 7 77 -9z m1698 -49 c-3 -3 -9 2 -12 12 -6 14 -5 15 5 6
7 -7 10 -15 7 -18z m-2002 -330 c-15 -8 -33 -15 -40 -14 -7 0 -6 2 2 6 6 2 10
9 6 14 -3 5 10 9 28 9 l33 0 -29 -15z m-161 -75 c-3 -5 -12 -10 -18 -10 -7 0
-6 4 3 10 19 12 23 12 15 0z m2500 -181 c5 -5 -5 -4 -23 2 -17 6 -32 13 -32
16 0 7 43 -8 55 -18z m40 -59 c3 -6 1 -10 -4 -10 -6 0 -11 5 -11 10 0 6 -5 10
-11 10 -5 0 -7 -6 -3 -12 4 -7 3 -9 -1 -5 -5 4 -10 14 -11 22 -2 11 2 12 16 5
11 -6 22 -15 25 -20z m-140 -30 c4 -6 -1 -7 -11 -3 -13 5 -15 3 -9 -7 5 -9 4
-11 -4 -6 -6 4 -9 12 -6 17 8 12 22 12 30 -1z m27 -17 c-6 -2 -10 -9 -7 -14 4
-5 -1 -6 -10 -2 -13 5 -14 7 -3 14 7 5 18 8 23 8 6 0 4 -3 -3 -6z m-2087 -73
c-3 -5 -13 -10 -21 -10 -8 0 -25 -6 -37 -14 -12 -8 -41 -17 -65 -19 -46 -4
-46 8 0 17 15 2 33 8 40 12 7 4 28 11 48 15 19 4 36 7 38 8 2 0 0 -3 -3 -9z
m-263 -117 c-18 -7 -32 -17 -32 -22 0 -5 -11 -12 -24 -15 -13 -3 -26 -16 -29
-28 -4 -12 -9 -19 -13 -15 -4 4 -21 -5 -38 -20 -17 -16 -25 -21 -18 -12 6 9
10 18 8 20 -3 2 22 24 55 48 32 24 57 47 54 51 -3 4 12 8 32 7 l37 -1 -32 -13z
m-193 -90 c-8 -10 -25 -27 -39 -38 -14 -11 -41 -36 -60 -56 -19 -19 -45 -43
-57 -53 -20 -16 -21 -17 -19 -1 4 26 136 157 152 151 7 -3 16 -1 19 4 4 6 9
10 12 10 3 0 -1 -8 -8 -17z m9 -35 c-13 -20 -55 -37 -42 -17 3 5 9 7 14 4 5
-3 14 4 20 15 6 11 13 20 17 20 3 0 -1 -10 -9 -22z m-68 -52 c0 -2 -8 -10 -17
-17 -16 -13 -17 -12 -4 4 13 16 21 21 21 13z m-160 -10 c0 -2 -8 -10 -17 -17
-16 -13 -17 -12 -4 4 13 16 21 21 21 13z m1967 -32 c-39 -26 -60 -26 -38 0 11
13 28 19 66 25 5 0 -8 -11 -28 -25z m1263 12 c0 -3 -4 -8 -10 -11 -5 -3 -10
-1 -10 4 0 6 5 11 10 11 6 0 10 -2 10 -4z m-1615 -27 c10 -16 -1 -22 -26 -14
-17 6 -19 9 -8 16 19 12 26 11 34 -2z m-1595 -13 c0 -2 -8 -10 -17 -17 -16
-13 -17 -12 -4 4 13 16 21 21 21 13z m3214 -32 c9 -24 2 -26 -12 -4 -7 11 -8
20 -3 20 5 0 12 -7 15 -16z m-3334 1 c0 -1 -14 -12 -31 -24 -18 -13 -30 -20
-27 -15 3 5 7 16 10 24 3 9 15 16 27 16 11 0 21 -1 21 -1z m2005 -45 c3 -5 -1
-10 -10 -10 -9 0 -13 5 -10 10 3 6 8 10 10 10 2 0 7 -4 10 -10z m-2005 -35
c-25 -26 -90 -69 -90 -58 0 10 54 53 67 53 7 0 18 9 25 20 7 10 14 17 17 15 2
-3 -6 -16 -19 -30z m1777 -91 c-3 -3 -12 -4 -19 -1 -8 3 -5 6 6 6 11 1 17 -2
13 -5z m-2612 -66 c-31 -104 -272 -425 -282 -377 -6 27 92 209 154 285 78 96
143 143 128 92z m1694 -215 c-24 -21 -66 -58 -94 -83 -27 -25 -99 -89 -160
-142 -149 -130 -412 -400 -572 -588 -152 -180 -172 -202 -158 -180 20 32 204
250 300 355 180 198 508 513 670 643 56 45 68 40 14 -5z m1621 -134 c0 -6 -4
-7 -10 -4 -5 3 -10 11 -10 16 0 6 5 7 10 4 6 -3 10 -11 10 -16z m303 -206
c214 -233 422 -486 483 -590 30 -50 54 -95 54 -100 0 -4 -23 30 -50 77 -28 47
-65 103 -83 125 -69 87 -335 396 -423 490 -93 100 -139 155 -131 155 2 0 70
-71 150 -157z m133 -17 c71 -72 165 -174 208 -226 88 -107 56 -75 -81 81 -92
105 -209 221 -273 273 -25 19 -28 24 -10 15 14 -6 84 -71 156 -143z m-2053
132 c-6 -7 -52 -68 -102 -135 -90 -121 -120 -153 -84 -92 21 36 182 239 190
239 3 0 1 -6 -4 -12z m-768 -75 c-253 -236 -444 -437 -639 -673 -248 -299
-360 -432 -387 -455 -12 -11 20 30 72 90 52 61 132 157 179 215 168 209 305
368 429 496 122 127 381 374 391 374 3 0 -17 -21 -45 -47z m2616 -41 c29 -42
45 -70 37 -62 -25 25 -114 155 -100 146 7 -4 35 -42 63 -84z m-1760 45 l-24
-22 19 27 c10 14 21 24 23 22 3 -3 -6 -15 -18 -27z m948 6 c12 10 13 9 7 -1
-7 -11 -1 -13 28 -9 20 3 39 0 42 -5 4 -6 9 -5 14 2 6 10 15 7 37 -10 25 -20
26 -22 5 -15 -23 7 -23 7 -7 -19 10 -14 13 -26 9 -26 -5 -1 2 -9 15 -20 12
-11 26 -18 30 -16 4 3 7 -4 8 -14 1 -11 -3 -22 -8 -26 -5 -3 -8 0 -7 7 2 6 -4
14 -12 16 -12 4 -12 3 -2 -5 8 -5 14 -13 13 -18 -1 -28 17 -67 60 -128 54 -77
53 -91 -7 -102 -30 -6 -34 -10 -34 -39 0 -26 -5 -34 -23 -39 -13 -3 -37 -19
-54 -35 -17 -16 -34 -27 -37 -24 -3 4 -6 1 -6 -5 0 -9 -5 -9 -20 0 -17 11 -22
10 -31 -2 -8 -11 -12 -12 -16 -2 -2 6 -13 12 -23 12 -21 0 -35 49 -46 155 -9
90 -8 122 3 165 10 41 -3 77 -31 86 -24 8 -43 -16 -52 -65 -8 -39 -76 -227
-100 -273 -8 -16 -19 -26 -24 -23 -6 4 -10 1 -10 -5 0 -6 -11 -16 -25 -22 -14
-6 -25 -17 -25 -25 0 -11 -4 -11 -20 -1 -13 9 -18 19 -14 35 5 18 3 22 -10 17
-12 -5 -16 0 -16 18 0 31 -8 40 -29 29 -13 -8 -16 -3 -17 26 -2 45 -17 61 -41
42 -16 -13 -17 -12 -4 4 9 11 10 17 2 17 -20 0 -12 35 20 86 17 27 35 51 39
54 4 3 12 15 19 28 7 12 16 20 20 17 5 -2 21 12 37 32 15 20 30 31 32 25 2 -8
11 -4 23 10 10 13 18 19 19 15 0 -4 9 -3 20 3 14 7 20 21 20 43 1 27 2 29 11
14 5 -9 7 -23 4 -30 -4 -6 2 -1 13 12 23 28 85 41 147 30 25 -5 45 -3 54 4z
m-990 -51 c-8 -10 -45 -61 -84 -112 -218 -291 -271 -367 -365 -516 -103 -165
-140 -214 -79 -106 85 151 425 638 502 720 34 35 47 43 26 14z m-949 5 c0 -2
-15 -16 -32 -33 l-33 -29 29 33 c28 30 36 37 36 29z m-80 -70 c0 -2 -12 -14
-27 -28 l-28 -24 24 28 c23 25 31 32 31 24z m1660 -21 c0 -3 -4 -8 -10 -11 -5
-3 -10 -1 -10 4 0 6 5 11 10 11 6 0 10 -2 10 -4z m1701 -303 c13 -16 12 -17
-3 -4 -10 7 -18 15 -18 17 0 8 8 3 21 -13z m-1852 -344 c-13 -18 -41 -49 -63
-68 -23 -20 -88 -81 -146 -137 -88 -86 -107 -100 -118 -88 -9 10 -10 19 -2 34
13 24 7 26 -14 4 -13 -12 -16 -13 -16 -2 0 8 14 27 30 43 17 16 30 25 30 20 0
-4 16 9 35 31 22 25 33 32 29 19 -5 -16 -3 -15 12 5 10 14 23 28 28 32 6 4 7
8 3 8 -5 0 -5 5 -1 11 5 8 9 8 14 -1 6 -9 25 1 70 36 76 60 124 93 129 88 2
-1 -7 -17 -20 -35z m1969 -34 c-3 -3 -9 2 -12 12 -6 14 -5 15 5 6 7 -7 10 -15
7 -18z m-1871 -4 c-3 -14 -1 -18 9 -14 8 3 14 11 14 19 0 8 5 14 10 14 6 0 10
-9 10 -20 0 -11 5 -20 11 -20 5 0 7 -5 3 -12 -4 -7 -3 -8 5 -4 6 4 9 11 6 16
-3 4 3 14 11 21 15 12 16 10 9 -20 -5 -22 -4 -31 3 -27 7 4 11 -21 10 -78 0
-46 2 -88 5 -92 2 -5 8 -38 11 -75 4 -36 14 -76 21 -90 19 -33 37 -72 65 -146
18 -45 30 -63 45 -65 11 -2 22 -12 24 -23 2 -11 12 -31 22 -44 10 -13 16 -28
12 -34 -3 -5 -2 -7 4 -4 5 3 33 -15 62 -40 28 -25 54 -43 57 -41 4 5 -16 61
-38 105 -20 40 1 44 47 10 50 -37 95 -126 111 -221 l6 -40 -23 16 c-13 9 -23
21 -22 27 2 6 -2 11 -8 11 -6 0 -29 17 -50 38 -22 20 -42 35 -46 33 -3 -2 -24
16 -47 38 -29 29 -48 40 -59 35 -33 -12 -13 -77 38 -124 l27 -25 -7 33 c-7 32
8 46 19 17 3 -8 11 -15 19 -15 20 0 70 -58 110 -127 25 -42 39 -84 48 -137 6
-42 9 -79 6 -82 -3 -3 -14 5 -24 18 -43 56 -154 157 -167 152 -8 -3 -16 4 -20
19 -3 13 -22 50 -42 83 -20 32 -33 49 -30 37 3 -13 9 -33 12 -45 4 -13 21 -43
39 -68 18 -25 52 -81 75 -125 24 -44 46 -82 49 -85 3 -3 7 -14 9 -25 2 -11 5
-37 8 -57 6 -42 -27 -125 -53 -135 -19 -7 -33 14 -33 49 0 15 -4 30 -10 33 -5
3 -10 12 -10 20 0 8 -5 26 -10 41 -11 27 -11 27 -25 7 -8 -11 -16 -31 -18 -44
-15 -88 -21 -109 -28 -109 -5 0 -9 9 -9 20 0 11 -4 20 -10 20 -5 0 -10 -4 -10
-10 0 -5 -5 -10 -10 -10 -16 0 -50 87 -50 125 0 62 -22 139 -67 238 -24 53
-43 102 -41 108 6 19 85 -67 98 -107 19 -59 51 -124 61 -124 26 0 -16 167 -62
245 -19 32 -24 35 -29 19 -5 -14 -8 -10 -14 18 -3 20 -13 49 -20 64 -31 64
-28 98 4 59 8 -10 17 -12 22 -7 13 13 -10 55 -67 125 -40 50 -78 117 -72 128
1 2 -3 -2 -10 -10 -7 -8 -10 -19 -7 -25 3 -6 -4 0 -15 14 -11 14 -21 32 -21
41 0 8 -8 33 -19 54 l-18 38 -13 -23 c-7 -13 -14 -33 -15 -45 -1 -11 -3 -24
-4 -29 0 -5 -8 -3 -16 4 -8 7 -15 9 -15 4 0 -5 -7 0 -15 10 -12 16 -15 17 -15
4 0 -8 -6 -21 -14 -27 -11 -9 -15 -8 -20 6 -6 14 -9 15 -16 3 -6 -10 -12 -5
-22 21 l-14 34 -2 -43 c-3 -72 -19 -81 -51 -28 -12 18 -21 43 -21 55 0 12 -4
20 -9 16 -5 -3 -13 -1 -16 5 -4 6 -1 9 7 8 9 -2 12 6 10 26 -2 17 0 26 6 22 6
-3 8 2 5 13 -3 10 -1 21 4 24 5 3 10 -11 11 -31 4 -50 12 -54 13 -6 0 21 4 48
9 59 7 18 8 17 15 -10 3 -16 11 -41 16 -54 8 -19 12 -21 24 -11 12 10 13 16 3
28 -7 9 -8 13 -2 9 8 -4 13 14 17 54 7 64 22 103 37 94 5 -3 16 8 25 24 20 39
40 52 30 20 -7 -23 50 52 103 138 30 47 37 53 29 24z m578 -21 c12 -11 24 -20
28 -20 3 0 29 -13 57 -30 27 -16 50 -26 50 -23 0 10 23 -24 55 -80 31 -56 26
-70 -13 -39 -15 12 -39 29 -54 37 -25 14 -27 14 -21 -2 3 -10 9 -22 13 -28 3
-5 12 -23 19 -39 11 -26 11 -28 -4 -16 -27 23 -25 5 3 -25 51 -55 62 -78 62
-127 0 -47 0 -47 -30 -41 -24 4 -30 2 -30 -11 0 -19 -23 -46 -39 -46 -5 0 -25
9 -43 19 -18 11 -51 21 -73 22 -22 2 -52 11 -68 22 -50 34 -126 120 -157 178
-35 67 -36 73 -11 59 32 -17 46 -12 28 8 -10 10 -17 28 -17 39 0 11 -5 34 -11
52 -12 35 -6 52 13 33 17 -17 28 -15 28 4 0 13 3 14 14 5 11 -9 15 -9 18 0 4
11 65 -46 100 -93 28 -38 22 0 -11 67 -32 64 -32 91 0 74 16 -8 19 -6 19 11 0
17 5 20 26 16 15 -3 37 -14 49 -26z m-1760 -100 c-25 -49 -47 -90 -50 -90 -3
0 15 41 40 90 25 50 47 90 50 90 3 0 -15 -40 -40 -90z m-1644 -47 c1 -5 3 -26
5 -48 5 -63 12 -82 42 -112 39 -39 53 -82 37 -114 -8 -13 -16 -22 -20 -20 -3
1 -20 -3 -36 -10 -41 -16 -51 -1 -43 69 6 57 -1 106 -15 97 -18 -10 -41 8 -41
32 0 13 5 44 11 69 10 37 15 44 35 44 13 0 24 -3 25 -7z m1579 -81 c0 -5 -7
-17 -15 -28 -14 -18 -14 -17 -4 9 12 27 19 34 19 19z m-61 -116 c-18 -30 -35
-53 -37 -51 -2 2 11 28 29 59 18 30 35 53 37 51 2 -2 -11 -28 -29 -59z m2561
-180 c0 -3 -4 -8 -10 -11 -5 -3 -10 -1 -10 4 0 6 5 11 10 11 6 0 10 -2 10 -4z
m-936 -202 c3 -8 2 -12 -4 -9 -6 3 -10 10 -10 16 0 14 7 11 14 -7z m181 -424
c10 -33 8 -97 -2 -86 -3 2 -7 26 -10 53 -3 26 -10 54 -16 61 -8 10 -7 12 4 10
8 -2 19 -19 24 -38z m-341 -85 c3 -8 1 -15 -4 -15 -6 0 -10 7 -10 15 0 8 2 15
4 15 2 0 6 -7 10 -15z m-1634 -471 c0 -7 -13 -17 -29 -22 -31 -11 -32 -8 -17
35 6 19 10 21 27 10 10 -6 19 -17 19 -23z m-115 -104 c-3 -5 -15 -10 -26 -10
-11 0 -17 5 -14 10 3 6 15 10 26 10 11 0 17 -4 14 -10z"/>
<path d="M4922 5938 c1 -31 6 -56 11 -55 5 1 13 -9 18 -23 9 -24 8 -24 -6 -5
-14 18 -15 17 -9 -15 4 -19 10 -39 15 -44 4 -5 5 2 2 15 -5 24 -5 24 11 4 10
-11 15 -15 12 -9 -3 6 -8 36 -11 65 -3 30 -7 63 -9 74 -3 11 -5 24 -5 28 -1 5
-5 6 -10 3 -5 -4 -12 0 -15 6 -3 7 -5 -13 -4 -44z m20 -7 c2 -17 1 -28 -4 -25
-8 5 -12 54 -4 54 2 0 6 -13 8 -29z"/>
<path d="M4930 5695 c7 -8 17 -15 22 -15 6 0 5 7 -2 15 -7 8 -17 15 -22 15 -6
0 -5 -7 2 -15z"/>
<path d="M4713 3432 c0 -22 33 -57 41 -43 4 5 -3 16 -15 24 -14 10 -16 16 -8
19 9 3 9 6 -2 10 -10 4 -16 0 -16 -10z"/>
<path d="M4215 2662 c-6 -4 -32 -52 -58 -107 -26 -55 -41 -92 -34 -83 8 10 17
14 21 10 4 -4 6 0 4 8 -2 9 3 14 12 12 8 -2 12 -1 8 3 -3 4 5 23 18 42 13 20
24 48 24 62 0 15 5 32 12 39 13 13 8 25 -7 14z"/>
<path d="M4181 2324 c0 -11 3 -14 6 -6 3 7 2 16 -1 19 -3 4 -6 -2 -5 -13z"/>
<path d="M4374 2008 c1 -13 4 -26 9 -29 4 -3 9 -15 12 -28 2 -12 16 -36 31
-54 17 -20 25 -24 20 -12 -5 11 -9 27 -10 35 -1 8 -7 25 -13 36 -7 12 -11 23
-9 25 2 2 -7 14 -19 27 l-22 23 1 -23z"/>
<path d="M4040 6156 c0 -2 8 -10 18 -17 15 -13 16 -12 3 4 -13 16 -21 21 -21
13z"/>
<path d="M3840 6023 c0 -5 7 -18 15 -29 13 -18 14 -18 8 4 -5 22 -23 41 -23
25z"/>
<path d="M3868 5940 c2 -16 6 -30 8 -30 2 0 4 14 4 30 0 17 -4 30 -8 30 -5 0
-7 -13 -4 -30z"/>
<path d="M4012 5950 c0 -14 2 -19 5 -12 2 6 2 18 0 25 -3 6 -5 1 -5 -13z"/>
<path d="M3728 5955 c-3 -4 9 -34 29 -67 20 -35 33 -68 30 -79 -3 -10 -2 -21
2 -23 4 -3 8 5 8 17 1 12 5 33 8 47 4 16 3 20 -3 12 -7 -10 -11 -6 -15 15 -7
32 -49 88 -59 78z"/>
<path d="M3926 5915 c3 -16 10 -36 15 -44 7 -12 8 -6 3 19 -3 19 -10 39 -15
44 -5 5 -6 -3 -3 -19z"/>
<path d="M4682 5895 c-15 -50 -16 -99 -1 -90 6 4 8 13 5 20 -3 8 0 15 5 17 6
2 9 24 7 48 l-3 45 -13 -40z"/>
<path d="M3880 5855 c0 -27 3 -45 7 -42 7 8 6 77 -2 85 -3 3 -5 -16 -5 -43z"/>
<path d="M3817 5738 c8 -95 13 -99 13 -10 0 39 -4 73 -9 77 -6 3 -8 -23 -4
-67z"/>
<path d="M3859 5718 c-3 -22 -1 -34 4 -29 5 5 7 21 5 37 -3 27 -4 26 -9 -8z"/>
<path d="M3943 5615 c0 -22 2 -30 4 -17 2 12 2 30 0 40 -3 9 -5 -1 -4 -23z"/>
<path d="M3841 5620 c-2 -14 -3 -38 -3 -55 1 -29 1 -29 -7 -5 -9 25 -9 25 -10
-5 -1 -23 -3 -27 -11 -15 -8 12 -10 10 -10 -10 0 -14 -6 -35 -14 -46 -8 -11
-16 -33 -18 -49 l-4 -30 -12 35 -12 35 5 -33 c3 -18 1 -31 -4 -28 -4 3 -6 -7
-4 -22 l4 -27 -14 30 c-13 29 -14 27 -9 -30 3 -39 13 -75 29 -102 26 -45 52
-70 40 -40 -3 10 -2 17 3 17 6 0 10 -11 10 -24 0 -14 4 -28 10 -31 6 -3 7 1 4
9 -4 9 -1 16 6 16 7 0 9 7 6 15 -19 47 -19 51 -4 32 12 -17 13 -13 11 30 l-2
48 19 -37 c27 -51 40 -56 30 -11 -5 21 -5 44 1 54 5 10 8 33 8 51 -1 30 -2 30
-8 -9 -8 -48 -18 -63 -26 -40 -4 8 1 36 9 61 9 26 16 54 16 64 0 12 3 13 8 4
5 -7 13 7 22 40 7 29 15 60 17 68 4 13 4 13 -6 0 -9 -12 -11 -9 -12 15 l-1 30
-8 -26 c-4 -14 -16 -36 -26 -48 l-19 -22 -6 58 c-3 32 -7 47 -8 33z m-32 -333
c1 -5 -3 -5 -9 -2 -5 3 -10 16 -9 28 0 21 1 21 9 2 5 -11 9 -24 9 -28z"/>
<path d="M3921 5434 c0 -11 3 -14 6 -6 3 7 2 16 -1 19 -3 4 -6 -2 -5 -13z"/>
<path d="M3689 5136 c9 -11 9 -15 -1 -19 -7 -3 -2 -6 11 -6 23 -1 24 0 6 19
-20 23 -34 28 -16 6z"/>
<path d="M3675 5080 c-4 -6 -11 -7 -17 -4 -7 4 -8 2 -4 -4 4 -7 16 -17 28 -23
13 -7 18 -7 14 -1 -3 6 -2 13 4 17 11 7 4 25 -10 25 -5 0 -12 -5 -15 -10z"/>
<path d="M3659 5033 c-1 -5 -1 -12 1 -18 1 -5 -4 -4 -11 3 -19 17 -34 15 -19
-3 7 -9 19 -14 26 -11 7 3 16 1 19 -4 4 -6 11 -10 16 -10 6 0 7 5 4 10 -3 6
-1 10 6 10 7 0 4 7 -7 15 -21 16 -33 19 -35 8z"/>
<path d="M3560 5010 c0 -5 10 -10 23 -10 18 0 19 2 7 10 -19 13 -30 13 -30 0z"/>
<path d="M3606 4992 c-3 -5 1 -9 9 -9 8 0 12 4 9 9 -3 4 -7 8 -9 8 -2 0 -6 -4
-9 -8z"/>
<path d="M3677 4969 c7 -7 15 -10 18 -7 3 3 -2 9 -12 12 -14 6 -15 5 -6 -5z"/>
<path d="M5520 4972 c0 -5 27 -21 60 -37 63 -30 79 -49 33 -40 -26 5 -26 5 -5
-4 12 -6 28 -8 36 -5 8 3 27 -2 43 -12 23 -14 22 -12 -7 14 -19 17 -38 31 -42
32 -4 0 -27 14 -51 30 -45 30 -67 37 -67 22z"/>
<path d="M5379 4957 c5 -5 24 -7 42 -5 33 3 33 4 -8 8 -23 3 -39 2 -34 -3z"/>
<path d="M5321 4946 c-10 -12 -8 -13 8 -9 12 3 18 9 15 14 -7 12 -10 11 -23
-5z"/>
<path d="M5408 4933 c6 -2 18 -2 25 0 6 3 1 5 -13 5 -14 0 -19 -2 -12 -5z"/>
<path d="M5480 4919 c0 -5 6 -9 13 -9 6 0 30 -3 52 -6 29 -4 36 -3 25 5 -8 5
-17 8 -21 6 -3 -3 -20 0 -38 5 -19 5 -31 5 -31 -1z"/>
<path d="M3538 4913 c6 -2 18 -2 25 0 6 3 1 5 -13 5 -14 0 -19 -2 -12 -5z"/>
<path d="M3588 4903 c6 -2 18 -2 25 0 6 3 1 5 -13 5 -14 0 -19 -2 -12 -5z"/>
<path d="M5357 4893 c-3 -5 21 -8 53 -8 32 0 56 3 53 8 -2 4 -26 7 -53 7 -27
0 -51 -3 -53 -7z"/>
<path d="M5505 4884 c21 -15 49 -19 41 -5 -3 5 -18 11 -33 14 -26 5 -26 4 -8
-9z"/>
<path d="M3638 4873 c6 -2 18 -2 25 0 6 3 1 5 -13 5 -14 0 -19 -2 -12 -5z"/>
<path d="M5350 4864 c-32 -11 -33 -13 -10 -14 57 -4 100 3 88 15 -12 12 -45
12 -78 -1z"/>
<path d="M3388 4863 c7 -3 16 -2 19 1 4 3 -2 6 -13 5 -11 0 -14 -3 -6 -6z"/>
<path d="M3573 4853 c15 -2 37 -2 50 0 12 2 0 4 -28 4 -27 0 -38 -2 -22 -4z"/>
<path d="M3140 4830 c-9 -6 -10 -10 -3 -10 6 0 15 5 18 10 8 12 4 12 -15 0z"/>
<path d="M3084 4804 c-18 -14 -18 -15 4 -4 12 6 22 13 22 15 0 8 -5 6 -26 -11z"/>
<path d="M3105 4775 c-22 -12 -43 -20 -48 -18 -4 3 -6 1 -5 -4 1 -4 -22 -32
-52 -61 l-55 -53 43 26 c75 45 58 18 -34 -55 -7 -5 -15 -6 -18 -3 -9 9 -96
-78 -89 -89 3 -6 18 3 35 19 19 18 27 22 23 10 -4 -10 -2 -17 4 -17 8 0 8 -4
-1 -14 -7 -8 -15 -14 -18 -13 -8 2 -84 -72 -79 -77 3 -3 24 11 48 30 24 18 50
34 58 34 8 0 12 4 9 8 -6 11 35 49 92 85 23 15 42 29 42 32 0 3 -16 5 -36 5
-19 0 -33 -4 -29 -9 3 -5 1 -12 -4 -15 -16 -10 -6 22 13 43 10 11 24 18 30 14
6 -3 8 -2 3 2 -4 5 3 20 15 34 13 14 16 20 8 14 -9 -7 -21 -8 -29 -4 -9 6 -4
11 16 20 24 10 117 82 103 80 -3 -1 -23 -11 -45 -24z"/>
<path d="M5398 4783 c7 -3 16 -2 19 1 4 3 -2 6 -13 5 -11 0 -14 -3 -6 -6z"/>
<path d="M3440 4753 c-14 -2 -32 -7 -40 -10 -8 -4 -18 -7 -22 -7 -3 -1 -10 -4
-14 -8 -4 -5 -14 -8 -23 -8 -11 0 -11 3 5 16 18 15 18 15 -3 4 -12 -5 -26 -9
-30 -8 -4 1 -18 -3 -30 -10 -12 -6 -30 -13 -41 -15 -11 -2 -26 -8 -34 -13 -35
-28 -126 -73 -133 -66 -5 4 -5 1 -1 -5 8 -14 62 9 119 49 15 11 27 17 27 14 0
-3 20 5 44 18 24 13 49 20 56 16 8 -5 -1 -12 -24 -20 -21 -7 -36 -14 -33 -16
3 -4 100 27 142 45 11 5 36 13 55 19 36 10 26 13 -20 5z"/>
<path d="M3124 4689 l-19 -22 33 17 c34 18 40 26 19 26 -8 0 -22 -10 -33 -21z"/>
<path d="M3400 4680 c-9 -6 -10 -10 -3 -10 6 0 15 5 18 10 8 12 4 12 -15 0z"/>
<path d="M3044 4578 l-19 -23 23 19 c12 11 22 21 22 23 0 8 -8 2 -26 -19z"/>
<path d="M4320 4200 c0 -5 5 -10 10 -10 6 0 10 5 10 10 0 6 -4 10 -10 10 -5 0
-10 -4 -10 -10z"/>
<path d="M5371 4201 c-8 -5 -4 -11 12 -18 19 -9 24 -8 24 3 0 16 -20 25 -36
15z"/>
<path d="M4250 4090 c0 -5 4 -10 9 -10 6 0 13 5 16 10 3 6 -1 10 -9 10 -9 0
-16 -4 -16 -10z"/>
<path d="M3915 4005 c-16 -13 -25 -24 -18 -25 7 0 25 11 40 25 36 32 17 32
-22 0z"/>
<path d="M3837 3984 c-28 -27 -34 -44 -18 -44 12 0 55 59 49 66 -3 2 -17 -8
-31 -22z"/>
<path d="M3951 3877 c-31 -15 -97 -95 -106 -127 -6 -21 1 -17 45 25 54 52 95
103 88 110 -2 2 -14 -1 -27 -8z"/>
<path d="M5863 661 c-30 -8 -111 -71 -123 -95 -3 -6 -13 -22 -22 -36 -17 -25
-21 -130 -6 -145 4 -4 4 3 1 16 -4 15 -3 20 5 15 7 -4 12 -18 12 -31 0 -14 14
-37 33 -55 26 -26 27 -30 8 -20 -47 24 -16 -13 35 -41 55 -31 92 -39 59 -12
-19 15 -19 15 5 8 32 -9 49 -9 80 1 23 7 24 6 11 -9 -18 -22 0 -22 30 1 13 10
36 23 52 30 15 6 27 16 27 22 0 8 -6 7 -20 0 -30 -16 -24 -6 24 42 44 43 45
45 42 103 -3 83 -39 143 -106 178 -59 31 -102 39 -147 28z m169 -76 c48 -68
70 -116 64 -140 -7 -26 -71 -124 -94 -142 -10 -8 -46 -13 -93 -13 -90 0 -92 2
-144 95 -35 62 -36 65 -21 94 9 16 16 38 16 48 0 24 45 72 84 89 18 8 57 13
96 11 63 -2 65 -3 92 -42z"/>
</g>
</svg>
